<svg xmlns="http://www.w3.org/2000/svg" viewBox="0 0 171.83 73.52"><defs><style>.cls-1{fill:#00356c;}.cls-2{fill:#ed1b36;}</style></defs><g id="Layer_2" data-name="Layer 2"><g id="Layer_1-2" data-name="Layer 1"><polygon class="cls-1" points="20.61 73.52 39.58 27.17 58.54 73.52 79.16 73.52 73.5 59.51 73.48 59.57 67.58 44.87 85.45 1.19 64.4 1.19 57.2 19.06 50.1 1.45 50.2 1.19 50 1.19 29.16 1.19 28.95 1.19 29.05 1.45 16.45 32.72 5.67 59.57 5.65 59.51 0 73.52 20.61 73.52"/><polygon class="cls-1" points="98.5 0.53 115.65 42.75 108.73 59.57 85.31 1.19 64.2 1.19 93.79 73.52 124.32 73.52 136.76 44.4 126.21 18.67 139.73 18.67 143.03 26.81 154.24 0.53 98.5 0.53"/><polygon class="cls-2" points="171.83 18.7 156.63 18.57 164.45 0 171.83 18.7"/></g></g></svg>